<svg xmlns="http://www.w3.org/2000/svg" viewBox="0 0 512 512" role="img" aria-labelledby="title desc">
  <title id="title">D'b8Gr logo</title>
  <desc id="desc">A cyan and green terminal-style D'b8Gr monogram.</desc>
  <defs>
    <radialGradient id="bg" cx="34%" cy="28%" r="74%">
      <stop offset="0" stop-color="#12343d"/>
      <stop offset="0.5" stop-color="#07161b"/>
      <stop offset="1" stop-color="#030608"/>
    </radialGradient>
    <linearGradient id="stroke" x1="86" x2="426" y1="84" y2="430">
      <stop offset="0" stop-color="#39ff88"/>
      <stop offset="0.46" stop-color="#00d7ff"/>
      <stop offset="1" stop-color="#7b61ff"/>
    </linearGradient>
    <filter id="glow" x="-30%" y="-30%" width="160%" height="160%">
      <feGaussianBlur stdDeviation="7" result="blur"/>
      <feColorMatrix in="blur" type="matrix" values="0 0 0 0 0  0 0 0 0 0.84  0 0 0 0 1  0 0 0 0.78 0"/>
      <feMerge>
        <feMergeNode/>
        <feMergeNode in="SourceGraphic"/>
      </feMerge>
    </filter>
  </defs>
  <rect width="512" height="512" rx="116" fill="url(#bg)"/>
  <path d="M88 126h336v260H88z" fill="none" stroke="#00d7ff" stroke-opacity=".34" stroke-width="10"/>
  <path d="M116 166l54 45-54 45M198 268h118" fill="none" stroke="#39ff88" stroke-linecap="round" stroke-linejoin="round" stroke-width="26" filter="url(#glow)"/>
  <text x="256" y="366" text-anchor="middle" fill="#d7fbff" font-family="Consolas, 'Courier New', monospace" font-size="70" font-weight="800" letter-spacing="-6" filter="url(#glow)">D'b8Gr</text>
  <rect x="88" y="126" width="336" height="260" fill="none" stroke="url(#stroke)" stroke-width="8" opacity=".88"/>
  <path d="M110 106h292c20 0 36 16 36 36v228c0 20-16 36-36 36H110c-20 0-36-16-36-36V142c0-20 16-36 36-36Z" fill="none" stroke="#39ff88" stroke-opacity=".18" stroke-width="18"/>
  <path d="M105 128h302" stroke="#39ff88" stroke-opacity=".28" stroke-width="2"/>
  <circle cx="122" cy="146" r="7" fill="#ff3b6b"/>
  <circle cx="146" cy="146" r="7" fill="#ffd166"/>
  <circle cx="170" cy="146" r="7" fill="#39ff88"/>
</svg>
